<?xml version="1.0" encoding="utf-8"?>
<!-- Generator: Adobe Illustrator 21.0.2, SVG Export Plug-In . SVG Version: 6.00 Build 0)  -->
<svg version="1.1" id="Layer_1" xmlns="http://www.w3.org/2000/svg" xmlns:xlink="http://www.w3.org/1999/xlink" x="0px" y="0px"
	 viewBox="0 0 369.6 197.6" style="enable-background:new 0 0 369.6 197.6;" xml:space="preserve">
<style type="text/css">
	.st0{fill:#FFB977;}
</style>
<g>
	<path class="st0" d="M369.6,14.7c-0.2,4.5-2.2,8.1-5.3,11.1c-11.6,11.5-23.2,22.9-34.7,34.4c-32,31.7-64,63.3-96,95
		c-12.5,12.4-25,24.8-37.5,37.2c-3.6,3.6-7.9,5.6-13.1,5c-3.8-0.4-6.9-2.3-9.6-4.9c-19.2-19-38.4-38.1-57.7-57.1
		C80.7,100.7,45.6,66,10.6,31.2c-2.4-2.3-4.8-4.6-7-7.1C-3.5,15.8,0.5,3.3,11,0.6C17.1-1,22,1,26.3,5.2c10,9.6,20,19.3,30,28.9
		c34.6,33.3,69.2,66.6,103.9,99.9c7.7,7.5,15.5,14.9,23.2,22.4c1,1,1.7,1,2.7,0c19.9-19.2,39.9-38.4,59.9-57.7
		c30.8-29.6,61.5-59.2,92.3-88.8c2.4-2.3,4.8-4.8,7.5-6.9c8-6.4,20.5-2.2,23.1,7.7C369.2,12,369.3,13.4,369.6,14.7z"/>
</g>
</svg>
