<?xml version="1.0" encoding="utf-8"?>
<!-- Generator: Adobe Illustrator 21.0.2, SVG Export Plug-In . SVG Version: 6.00 Build 0)  -->
<svg version="1.1" id="Layer_1" xmlns="http://www.w3.org/2000/svg" xmlns:xlink="http://www.w3.org/1999/xlink" x="0px" y="0px"
	 viewBox="0 0 400 400" style="enable-background:new 0 0 400 400;" xml:space="preserve">
<style type="text/css">
	.st0{fill:#FFFFFF;}
</style>
<g>
	<path class="st0" d="M185,0c10,0,20,0,30,0c0.9,0.3,1.8,0.7,2.7,0.9c9,1.4,18.3,2,27,4.3C326.5,26.9,377.2,79,396.1,161.6
		c1.8,7.7,2.6,15.6,3.9,23.4c0,10,0,20,0,30c-0.3,0.9-0.7,1.8-0.9,2.7c-1.4,9-2,18.3-4.3,27c-21.7,81.8-73.8,132.5-156.4,151.4
		c-7.7,1.8-15.6,2.6-23.4,3.9c-10,0-20,0-30,0c-6.3-1-12.7-1.9-19-3C85.3,383.8,19.1,319.2,3.9,238.9C2.4,231,1.3,223,0,215
		c0-10,0-20,0-30c0.3-0.7,0.8-1.5,0.8-2.2c1.3-16.7,4.5-33,10.4-48.6C37.8,63.9,87.7,20.3,161.1,3.9C169,2.2,177,1.3,185,0z
		 M373.2,200.2c0.6-94.3-76.4-171.7-169.9-173.4C106.9,25,28.2,103,26.7,197.1C25.2,293.2,103,372,197.5,373.3
		C294,374.6,373.7,295.7,373.2,200.2z"/>
	<path class="st0" d="M244.7,5.2c-8.8-2.3-18-2.9-27-4.3c-0.9-0.1-1.8-0.6-2.7-0.9"/>
	<path class="st0" d="M400,185c-1.3-7.8-2.1-15.7-3.9-23.4"/>
	<path class="st0" d="M11.2,134.2c-5.9,15.6-9.1,31.9-10.4,48.6c-0.1,0.8-0.5,1.5-0.8,2.2"/>
	<path class="st0" d="M185,0c-8,1.3-16,2.2-23.9,3.9"/>
	<path class="st0" d="M394.8,244.7c2.3-8.8,2.9-18,4.3-27c0.1-0.9,0.6-1.8,0.9-2.7"/>
	<path class="st0" d="M215,400c7.8-1.3,15.7-2.1,23.4-3.9"/>
	<path class="st0" d="M165.7,200.1c25,24.9,49.5,49.4,74,73.9c1.6,1.6,3.3,3.3,4.6,5.2c3.6,5.3,2.7,12.5-1.9,16.9
		c-4.5,4.3-11.4,4.9-16.6,1.3c-1.6-1.1-3.1-2.6-4.5-4c-27.2-27.2-54.4-54.4-81.7-81.6c-8.4-8.4-8.4-15.3-0.1-23.6
		c27.3-27.3,54.7-54.7,82-82c1.3-1.3,2.6-2.6,4.1-3.7c5.1-3.6,12-3.1,16.6,1.2c4.5,4.2,5.6,11.2,2.3,16.4c-1.2,2-2.9,3.7-4.5,5.3
		c-23.4,23.5-46.9,46.9-70.3,70.4C168.5,197.1,167.3,198.5,165.7,200.1z"/>
</g>
</svg>
