<svg id="Layer_1" data-name="Layer 1" xmlns="http://www.w3.org/2000/svg" viewBox="0 0 236.19 458.93"><defs><style>.cls-1{fill:#ffaf74;}</style></defs><title>Buzzed_LOGO</title><path class="cls-1" d="M235.65,301.58q-7.62-37.49-29.61-63a158.91,158.91,0,0,0-53-40.21,124.45,124.45,0,0,0,34.23-33.15q13.58-19.56,13.58-47.27,0-28.8-9.51-49.18a100,100,0,0,0-25.27-34,113.39,113.39,0,0,0-36.41-20.92A225.56,225.56,0,0,0,86.76,3.26,309.26,309.26,0,0,0,41.93,0Q19.38,0,.37,1.09q-.55,13-.27,29.07T1.18,63.58Q2,81,3.63,98.62T6.89,132q3.26,31,4.89,68.74t3,80.15q1.35,42.38,2.72,87.21t4.62,89.39a375,375,0,0,0,37.49,1.36,188.62,188.62,0,0,0,38-4.62q36.4-7.62,62.49-22T203,398.84a128.79,128.79,0,0,0,25-41.3,130.38,130.38,0,0,0,8.15-45.1V307A28.08,28.08,0,0,0,235.65,301.58ZM106,364.54c-18.55.09-28-2.28-28-6.49s9.38-6.1,24.59-6.74c-.48-14.54-.85-153.68-4.51-177.66-.27-1.76-2.91-4.93-5.31-7.26L28.58,97.54a3.26,3.26,0,0,1,2.55-5.42H170.64a4,4,0,0,1,2.8,6.65s-48.36,55.55-61.13,68.31c-.17.17-.34.35-.51.54-2.72,3-4.09,9.08-4.09,13.16,0,28.81,1.66,161.19,2,170.44,16.76.37,24.41,1.62,24.5,6.82C134.28,363,126.39,364.43,106,364.54Z"/></svg>