<svg id="Layer_1" data-name="Layer 1" xmlns="http://www.w3.org/2000/svg" viewBox="0 0 236.23 123.55"><defs><style>.cls-1{fill:#ffaf74;}</style></defs><title>Buzzed_FullLogo</title><path class="cls-1" d="M92.68,39.24q.22,3.66.37,7.18T93.3,53q.11,3,.18,5.35t.07,3.41q0,4,0,8.17T93.16,78a67.62,67.62,0,0,1-1.06,7.65A30.36,30.36,0,0,1,90,92.38a18.3,18.3,0,0,1-3.59,5.27A13.72,13.72,0,0,1,81,101a12.85,12.85,0,0,1-2.64.59,24,24,0,0,1-2.64.15,13.26,13.26,0,0,1-10.62-6.3q-4-5.93-4.47-17.94-.44-5.56-.44-11.24V52.65q0-1.24,0-2.89t0-3.44q0-1.79,0-3.3t.11-3.48H67q0,6.44,0,13t0,12.8q0,5.93.37,11.85a49,49,0,0,0,2.05,11.41q.51,1,1,2.12a12,12,0,0,0,1.21,2,5.72,5.72,0,0,0,1.76,1.57,5.22,5.22,0,0,0,2.67.62,7.78,7.78,0,0,0,5.16-1.68,11,11,0,0,0,3.15-5A38.9,38.9,0,0,0,86,80q.51-4.9.73-11.41,0-7.31-.15-14.08T85.94,39.9Z"/><path class="cls-1" d="M130.91,98.35q-2.05,0-3.59,0l-3.15.07-3.63.07-5,.07q-3,0-7.29,0L97.81,98.5q0-.44,0-1.25c0-.54,0-1.12-.07-1.76s0-1.28,0-1.94A8,8,0,0,1,98,91.76q3.15-5.42,5.71-9.59l4.69-7.62q2.12-3.44,3.92-6.45T115.79,62q1.72-3.11,3.44-6.63t3.7-7.91q-2.56.15-5.6.15t-6.19,0l-6.26-.07q-3.11,0-5.82,0,0-1.68,0-3.37a30.83,30.83,0,0,1,.11-3.37h6.45q3.52,0,7.1,0l7.1-.07q3.52,0,6.45-.11H130l.07,7.32q-2.42,5.86-5.27,11.61t-6,11.28q-3.11,5.53-6.3,10.84t-6.26,10.22q6.88.15,12.71.07t12-.44Z"/><path class="cls-1" d="M167.46,98.35q-2.05,0-3.59,0l-3.15.07-3.63.07-5,.07q-3,0-7.29,0l-10.44-.11q0-.44,0-1.25c0-.54,0-1.12-.07-1.76s0-1.28,0-1.94a8,8,0,0,1,.26-1.79q3.15-5.42,5.71-9.59l4.69-7.62q2.12-3.44,3.92-6.45T152.34,62q1.72-3.11,3.44-6.63t3.7-7.91q-2.56.15-5.6.15t-6.19,0l-6.26-.07q-3.11,0-5.82,0,0-1.68,0-3.37a30.83,30.83,0,0,1,.11-3.37h6.45q3.52,0,7.1,0l7.1-.07q3.52,0,6.45-.11h3.74l.07,7.32q-2.42,5.86-5.27,11.61t-6,11.28q-3.11,5.53-6.3,10.84t-6.26,10.22q6.88.15,12.71.07t12-.44Z"/><path class="cls-1" d="M198,45.4q-4,0-7.8.18t-7.65.18q-1.25,0-2.45-.07t-2.46-.22q0,2.48,0,5.51t.11,6.21q.07,3.18.11,6.21t.11,5.51q3.44,0,6.81-.22t6.88-.22v6.74l-6.88.29q-3.44.15-6.74.15.07,3.81.11,7.51t0,7.43v.59l6.7.15q3.33.07,6.7.07H196a16.13,16.13,0,0,0,4-.44s.08.21.11.62,0,.94.07,1.57.07,1.34.15,2.12.16,1.56.26,2.34l-29.15.29q0-7.76-.11-15.71t-.22-15.6q-.11-7.65-.22-14.72t-.11-13q3.47.15,5.8.22l3.94.15,2.67.11q1.06,0,2,0,3.22,0,6.41-.22t6.41-.15q0,1.61,0,3.3A24.63,24.63,0,0,1,198,45.4Z"/><path class="cls-1" d="M204.67,100.4q0-3.81-.22-7.95T204,84.07l-.44-8.5q-.22-4.25-.22-8.28,0-7.4-.26-14.72t-.26-14.65a42,42,0,0,1,11.79,1.87A30.89,30.89,0,0,1,223,43.9a22.94,22.94,0,0,1,5.46,5.38,26.86,26.86,0,0,1,3.08,5.57,24.56,24.56,0,0,1,1.32,5.42q.37,2.86.51,5.86a60.77,60.77,0,0,1-.81,9.63,28.9,28.9,0,0,1-3.22,9.41,32.8,32.8,0,0,1-4.61,6.56,27.44,27.44,0,0,1-5.82,4.87,25.79,25.79,0,0,1-6.78,3A24.5,24.5,0,0,1,204.67,100.4Zm5.35-33q0,6.23.48,13t.77,13a13.19,13.19,0,0,0,4.61-2.45,30.65,30.65,0,0,0,3.84-3.7,28.22,28.22,0,0,0,2.89-3.92,28.8,28.8,0,0,0,1.68-3.11,24.65,24.65,0,0,0,1.87-6.85,55.94,55.94,0,0,0,.48-7.14,32.42,32.42,0,0,0-.62-6.3,18.79,18.79,0,0,0-2.23-5.9,18,18,0,0,0-4.36-4.94,20.16,20.16,0,0,0-7-3.44l-1.36-.29L209.65,45q.07,5.86.22,11.39T210,67.44Z"/><path class="cls-1" d="M55.64,69.5A30.68,30.68,0,0,0,49,55.29,35.83,35.83,0,0,0,37,46.22a28.06,28.06,0,0,0,7.72-7.47,18.23,18.23,0,0,0,3.06-10.66A26.09,26.09,0,0,0,45.65,17,22.55,22.55,0,0,0,40,9.34a25.57,25.57,0,0,0-8.21-4.72,50.86,50.86,0,0,0-9.68-2.39A69.73,69.73,0,0,0,12,1.5q-5.09,0-9.37.24Q2.46,4.69,2.52,8.3t.24,7.54q.18,3.92.55,7.9t.74,7.54q.74,7,1.1,15.5t.67,18.07q.3,9.56.61,19.67t1,20.16a84.56,84.56,0,0,0,8.45.31,42.53,42.53,0,0,0,8.58-1A50.53,50.53,0,0,0,38.6,99a36,36,0,0,0,9.68-7.54,29,29,0,0,0,5.64-9.31A29.4,29.4,0,0,0,55.76,72V70.73A6.33,6.33,0,0,0,55.64,69.5ZM26.4,83.7c-4.18,0-6.32-.51-6.32-1.46s2.12-1.38,5.54-1.52c-.11-3.28-.19-34.65-1-40.06A4.37,4.37,0,0,0,23.41,39L8.94,23.49a.74.74,0,0,1,.57-1.22H41a.9.9,0,0,1,.63,1.5S30.7,36.3,27.82,39.17l-.12.12a5,5,0,0,0-.92,3c0,6.5.37,36.35.45,38.43,3.78.08,5.5.37,5.52,1.54S31,83.68,26.4,83.7Z"/></svg>