<?xml version="1.0" encoding="utf-8"?>
<!-- Generator: Adobe Illustrator 21.0.2, SVG Export Plug-In . SVG Version: 6.00 Build 0)  -->
<svg version="1.1" id="Layer_1" xmlns="http://www.w3.org/2000/svg" xmlns:xlink="http://www.w3.org/1999/xlink" x="0px" y="0px"
	 viewBox="0 0 241.3 321.6" style="enable-background:new 0 0 241.3 321.6;" xml:space="preserve">
<style type="text/css">
	.st0{fill:none;stroke:#38A16E;stroke-width:9;stroke-miterlimit:10;}
	.st1{fill:#38A16E;stroke:#38A16E;stroke-width:5;stroke-miterlimit:10;}
</style>
<path class="st0" d="M144.8,288.9c-8.9-5-14.9-14.1-15.8-24.3c-3.4-40.6,1.9-62.7,11.4-70.9c95.2-13.5,96.3-189.2,96.3-189.2H4.8
	c0,0-2.6,42.7,8.5,88.3c10.5,43.4,27,91.4,82.4,104c16,26.5,13.4,70.1,5,82c-13,18.3-51.7,26.7-51.7,26.7
	c-29.3,8.7-3.3,11.3-3.3,11.3s124.7,0.7,141.3,0c16.7-0.7,9.3-8,9.3-8C189.1,307.5,161,297.9,144.8,288.9z"/>
<path class="st1" d="M15.1,92.2h211.1c0,0-30.6,90.7-85.8,101.5C88.2,203.9,37.6,188.7,15.1,92.2z"/>
</svg>
