<?xml version="1.0" encoding="utf-8"?>
<!-- Generator: Adobe Illustrator 21.0.2, SVG Export Plug-In . SVG Version: 6.00 Build 0)  -->
<svg version="1.1" id="Layer_1" xmlns="http://www.w3.org/2000/svg" xmlns:xlink="http://www.w3.org/1999/xlink" x="0px" y="0px"
	 viewBox="0 0 165.1 149.5" style="enable-background:new 0 0 165.1 149.5;" xml:space="preserve">
<style type="text/css">
	.st0{fill:none;stroke:#000000;}
</style>
<path class="st0" d="M140.5,81.7h20c0,0,9.3-1.3,0-9.3c-9.3-8-74.7-70.7-74.7-70.7s-2-2.7-6.7,0S51.1,27,51.1,27s0.7-5.3-5-5
	s-19.3,0-19.3,0s-2.7,0.3-2.3,3.3c0.3,3,0,29.3,0,29.3l-23,21c0,0-3.7,5.7,3.3,6c7,0.3,20.3,0,20.3,0l-0.7,61c0,0,0.7,4.7,5.7,6.3
	h34.3h2.3c1.1-0.6,0.7-4.9,0.7-6.1v-34.6h31v35c0,0-0.7,4,3,5.7h34.3c0,0,4.3-0.3,5-6.7C141.5,136,140.5,81.7,140.5,81.7z"/>
</svg>
