<?xml version="1.0" encoding="utf-8"?>
<!-- Generator: Adobe Illustrator 21.0.2, SVG Export Plug-In . SVG Version: 6.00 Build 0)  -->
<svg version="1.1" id="Layer_1" xmlns="http://www.w3.org/2000/svg" xmlns:xlink="http://www.w3.org/1999/xlink" x="0px" y="0px"
	 viewBox="0 0 187.5 142.1" style="enable-background:new 0 0 187.5 142.1;" xml:space="preserve">
<style type="text/css">
	.st0{fill:#FFFFFF;}
</style>
<path class="st0" d="M156.2,134c0,4-3.2,7.2-7.2,7.2l-54,0.2l-58.6,0.7c-4,0-7.3-3.2-7.3-7.2V88.6c0-2.2,1-4.2,2.7-5.6l57.7-46.2
	c2.7-2.1,6.5-2.1,9.1,0.1L153.7,83c1.6,1.4,2.6,3.4,2.6,5.5V134z"/>
<path class="st0" d="M88.7,2.6"/>
<path class="st0" d="M1.6,75c-1.8,1.5-2.1,4.1-0.6,5.9l4.8,5.9c1.5,1.8,4.1,2.1,5.9,0.6L92,23c1.3-1,3.1-1,4.4,0l79.4,65.4
	c1.8,1.5,4.5,1.2,6-0.6l4.7-5.8c1.5-1.8,1.2-4.5-0.6-6c0,0-29.6-25.9-29.6-27.8V5.8c0-2.5-2.1-4.6-4.6-4.6h-17.8
	c-2.5,0-4.6,2.1-4.6,4.6v23.4L98.8,1.6c-1.5-1.8-4.1-2.1-5.9-0.6L1.6,75z"/>
</svg>
