<?xml version="1.0" encoding="utf-8"?>
<!-- Generator: Adobe Illustrator 21.0.2, SVG Export Plug-In . SVG Version: 6.00 Build 0)  -->
<svg version="1.1" id="Layer_1" xmlns="http://www.w3.org/2000/svg" xmlns:xlink="http://www.w3.org/1999/xlink" x="0px" y="0px"
	 viewBox="0 0 171 161.1" style="enable-background:new 0 0 171 161.1;" xml:space="preserve">
<style type="text/css">
	.st0{fill:#FFFFFF;}
</style>
<g>
	<path class="st0" d="M56.3,112.7C25.3,112.7,0,87.4,0,56.3S25.3,0,56.3,0s56.3,25.3,56.3,56.3S87.4,112.7,56.3,112.7z M56.3,12.7
		c-24.1,0-43.7,19.6-43.7,43.7S32.3,100,56.3,100S100,80.4,100,56.3S80.4,12.7,56.3,12.7z"/>
</g>
<g>
	<path class="st0" d="M143.2,157.5L107.8,125c-4.9-4.5-5.2-12.1-0.7-17l7.2-7.8c4.5-4.9,12.1-5.2,17-0.7l35.4,32.5
		c4.9,4.5,5.2,12.1,0.7,17l-7.2,7.8C155.7,161.6,148.1,162,143.2,157.5z"/>
	<path class="st0" d="M151.3,161.1c-3.1,0-6.1-1.2-8.4-3.3l-35.4-32.5c-5.1-4.7-5.4-12.6-0.8-17.6l7.2-7.8
		c4.7-5.1,12.6-5.4,17.6-0.8l35.4,32.5c2.4,2.2,3.9,5.3,4,8.7c0.1,3.3-1,6.5-3.3,9l-7.2,7.8c-2.2,2.4-5.3,3.9-8.7,4
		C151.7,161.1,151.5,161.1,151.3,161.1z M123.1,96.8c-3.1,0-6.2,1.3-8.5,3.7l-7.2,7.8c-4.3,4.7-4,12,0.7,16.3l35.4,32.5
		c2.3,2.1,5.2,3.1,8.3,3c3.1-0.1,5.9-1.4,8-3.7l7.2-7.8c2.1-2.3,3.1-5.2,3-8.3c-0.1-3.1-1.4-5.9-3.7-8l-35.4-32.5
		C128.7,97.8,125.9,96.8,123.1,96.8z"/>
</g>
<g>
	<rect x="91.2" y="91.6" transform="matrix(0.7366 0.6763 -0.6763 0.7366 95.6217 -45.4578)" class="st0" width="30" height="17"/>
</g>
</svg>
